<svg xmlns="http://www.w3.org/2000/svg" width="32.656" height="32.656" viewBox="0 0 32.656 32.656">
  <path id="Path_3" data-name="Path 3" d="M16.328,2.9a50.065,50.065,0,0,1,6.531.181,8.415,8.415,0,0,1,3.084.544,6.371,6.371,0,0,1,3.084,3.084A8.415,8.415,0,0,1,29.572,9.8c0,1.633.181,2.177.181,6.531a50.065,50.065,0,0,1-.181,6.531,8.415,8.415,0,0,1-.544,3.084,6.371,6.371,0,0,1-3.084,3.084,8.415,8.415,0,0,1-3.084.544c-1.633,0-2.177.181-6.531.181A50.065,50.065,0,0,1,9.8,29.572a8.415,8.415,0,0,1-3.084-.544,6.371,6.371,0,0,1-3.084-3.084,8.415,8.415,0,0,1-.544-3.084c0-1.633-.181-2.177-.181-6.531A50.065,50.065,0,0,1,3.084,9.8a8.415,8.415,0,0,1,.544-3.084A6.516,6.516,0,0,1,4.9,4.9a3.067,3.067,0,0,1,1.814-1.27A8.415,8.415,0,0,1,9.8,3.084,50.065,50.065,0,0,1,16.328,2.9m0-2.9A53.605,53.605,0,0,0,9.615.181,11.2,11.2,0,0,0,5.624.907a7.1,7.1,0,0,0-2.9,1.814,7.1,7.1,0,0,0-1.814,2.9A8.266,8.266,0,0,0,.181,9.615,53.605,53.605,0,0,0,0,16.328a53.605,53.605,0,0,0,.181,6.713,11.2,11.2,0,0,0,.726,3.991,7.1,7.1,0,0,0,1.814,2.9,7.1,7.1,0,0,0,2.9,1.814,11.2,11.2,0,0,0,3.991.726,53.606,53.606,0,0,0,6.713.181,53.606,53.606,0,0,0,6.713-.181,11.2,11.2,0,0,0,3.991-.726,7.612,7.612,0,0,0,4.717-4.717,11.2,11.2,0,0,0,.726-3.991c0-1.814.181-2.358.181-6.713a53.606,53.606,0,0,0-.181-6.713,11.2,11.2,0,0,0-.726-3.991,7.1,7.1,0,0,0-1.814-2.9,7.1,7.1,0,0,0-2.9-1.814A11.2,11.2,0,0,0,23.041.181,53.605,53.605,0,0,0,16.328,0m0,7.983a8.211,8.211,0,0,0-8.345,8.345,8.345,8.345,0,1,0,8.345-8.345m0,13.788a5.346,5.346,0,0,1-5.443-5.443,5.346,5.346,0,0,1,5.443-5.443,5.346,5.346,0,0,1,5.443,5.443,5.346,5.346,0,0,1-5.443,5.443M25.036,5.624a2,2,0,1,0,2,2,2.013,2.013,0,0,0-2-2" fill="#0d0d0d" fill-rule="evenodd"/>
</svg>
