<svg xmlns="http://www.w3.org/2000/svg" width="38.233" height="31.012" viewBox="0 0 38.233 31.012">
  <path id="Path_2" data-name="Path 2" d="M50.107,33.012c14.444,0,22.3-11.895,22.3-22.3V9.647a17.265,17.265,0,0,0,3.823-4.036,17.633,17.633,0,0,1-4.461,1.274,8.264,8.264,0,0,0,3.4-4.248,19.483,19.483,0,0,1-4.885,1.912A7.586,7.586,0,0,0,64.551,2a7.98,7.98,0,0,0-7.859,7.859,4.141,4.141,0,0,0,.212,1.7A21.961,21.961,0,0,1,40.761,3.274,8.134,8.134,0,0,0,39.7,7.31a8.439,8.439,0,0,0,3.4,6.585,7.161,7.161,0,0,1-3.611-1.062h0a7.763,7.763,0,0,0,6.372,7.647,6.548,6.548,0,0,1-2.124.212,3.615,3.615,0,0,1-1.487-.212A8.047,8.047,0,0,0,49.682,26a16.037,16.037,0,0,1-9.771,3.4A5.881,5.881,0,0,1,38,29.188a20.049,20.049,0,0,0,12.107,3.823" transform="translate(-38 -2)" fill="#0d0d0d" fill-rule="evenodd"/>
</svg>
